#!OML:ASF F:\VICON\USERDATA\INSTALL\Justin_Nancy\Justin_Nancy.ASF
:FULLY-SPECIFIED
:DEGREES
95
root 1.8774 17.3904 -13.91 -3.61363 -2.5685 4.56248
lowerback 7.29534 0.302414 -4.21808
upperback 0.588523 0.0714869 0.358099
thorax -3.48956 0.100774 2.73553
lowerneck -16.7062 -3.24087 -9.93193
upperneck 19.4784 -3.0257 5.19191
head 9.11571 -1.59791 3.04189
rclavicle 2.90723e-015 -3.57812e-015
rhumerus -32.6022 -18.5105 -76.661
rradius 27.1712
rwrist 11.205
rhand -16.6342 14.0606
rfingers 7.12502
rthumb 9.5883 -15.7012
lclavicle 2.90723e-015 -3.57812e-015
lhumerus -29.7253 16.8872 82.0271
lradius 22.5026
lwrist -11.9266
lhand -13.3636 28.1685
lfingers 7.12502
lthumb 12.7426 57.7597
rfemur -25.5662 -3.44161 15.9727
rtibia 66.7265
rfoot -5.72134 -8.09436
rtoes 2.85702
lfemur -8.06975 -2.84361 -30.4814
ltibia 28.8518
lfoot -13.2798 3.44915
ltoes 5.88285
96
root 1.86323 17.3725 -13.7729 -3.56615 -2.26654 4.54799
lowerback 7.39042 0.179176 -4.33263
upperback 0.762544 -0.0995158 0.447491
thorax -3.34823 0.0119623 2.91035
lowerneck -17.1603 -3.24714 -9.88095
upperneck 19.4686 -2.95812 5.01439
head 9.18653 -1.57575 2.97797
rclavicle -9.3553e-015 3.97569e-016
rhumerus -32.5778 -18.8747 -76.4816
rradius 27.0015
rwrist 10.7416
rhand -16.1473 13.3693
rfingers 7.12502
rthumb 10.0581 -16.3703
lclavicle -9.3553e-015 3.97569e-016
lhumerus -28.7275 16.0387 82.6717
lradius 22.9231
lwrist -11.1331
lhand -13.3144 29.2408
lfingers 7.12502
lthumb 12.7901 58.829
rfemur -26.3819 -3.52161 16.0123
rtibia 65.2484
rfoot -6.09896 -8.38588
rtoes 2.93739
lfemur -7.73581 -2.86079 -30.4884
ltibia 29.2228
lfoot -13.8662 3.42139
ltoes 6.35601
97
root 1.8468 17.3573 -13.641 -3.30146 -1.84819 4.54566
lowerback 7.43986 0.0397292 -4.56045
upperback 0.80761 -0.300184 0.586015
thorax -3.31064 -0.0855235 3.20332
lowerneck -17.615 -3.2861 -9.93821
upperneck 19.5121 -2.92513 4.9161
head 9.28192 -1.57048 2.95571
rclavicle -1.28216e-014 -7.15625e-015
rhumerus -32.5232 -19.3206 -76.1705
rradius 26.5333
rwrist 10.7335
rhand -16.5743 13.1173
rfingers 7.12502
rthumb 9.64605 -16.6419
lclavicle -1.28216e-014 -7.15625e-015
lhumerus -27.7965 15.3122 83.2647
lradius 23.2983
lwrist -10.5841
lhand -12.8599 30.2866
lfingers 7.12502
lthumb 13.2282 59.8469
rfemur -27.3646 -3.63712 16.075
rtibia 63.5902
rfoot -6.5606 -8.71788
rtoes 3.03908
lfemur -7.66491 -2.9591 -30.4623
ltibia 29.4424
lfoot -14.4213 3.07648
ltoes 6.2492
98
root 1.83859 17.3494 -13.4936 -3.05035 -1.51363 4.57857
lowerback 7.38971 -0.0869036 -4.71609
upperback 0.706236 -0.4775 0.684978
thorax -3.37007 -0.167504 3.41217
lowerneck -17.6188 -3.24657 -9.94891
upperneck 19.5322 -2.83812 4.79053
head 9.28139 -1.54485 2.92536
rclavicle -1.93815e-015 1.11319e-014
rhumerus -32.9584 -19.5121 -75.7825
rradius 26.116
rwrist 10.7314
rhand -17.3915 13.5192
rfingers 7.12502
rthumb 8.85754 -16.2749
lclavicle -1.93815e-015 1.11319e-014
lhumerus -27.5249 14.5567 83.6295
lradius 23.796
lwrist -10.3686
lhand -12.8715 29.85
lfingers 7.12502
lthumb 13.2171 59.411
rfemur -28.2032 -3.76352 16.048
rtibia 61.709
rfoot -6.58658 -8.95836
rtoes 4.05753
lfemur -7.46774 -3.0709 -30.5145
ltibia 29.504
lfoot -14.7881 2.92259
ltoes 5.233
99
root 1.83457 17.3441 -13.3404 -2.93615 -1.28602 4.83538
lowerback 7.42703 -0.172223 -4.99244
upperback 0.553204 -0.619046 0.690197
thorax -3.53414 -0.226357 3.58954
lowerneck -17.1228 -3.15012 -10.1007
upperneck 19.3027 -2.7318 4.8752
head 9.10657 -1.49897 2.99337
rclavicle -9.0944e-015 1.59028e-015
rhumerus -33.6837 -19.5179 -75.4082
rradius 26.0648
rwrist 9.93901
rhand -17.0346 13.5298
rfingers 7.12502
rthumb 9.20195 -16.2494
lclavicle -9.0944e-015 1.59028e-015
lhumerus -27.5451 13.8722 83.938
lradius 24.2992
lwrist -9.91789
lhand -14.0502 28.7477
lfingers 7.12502
lthumb 12.0807 58.3789
rfemur -28.7692 -3.81273 15.7109
rtibia 59.6199
rfoot -6.31672 -9.38118
rtoes 4.93785
lfemur -6.99239 -3.1261 -30.8434
ltibia 29.4318
lfoot -15.1544 2.92525
ltoes 3.56533
100
root 1.82793 17.3431 -13.1923 -2.8421 -1.13071 4.9093
lowerback 7.513 -0.259634 -5.07381
upperback 0.522314 -0.746874 0.709729
thorax -3.60063 -0.285958 3.67039
lowerneck -16.974 -3.06247 -10.1114
upperneck 19.08 -2.61852 4.87163
head 8.99335 -1.44477 3.0064
rclavicle -1.18525e-014 1.59028e-015
rhumerus -34.1599 -19.6625 -75.1638
rradius 26.1231
rwrist 9.38277
rhand -16.3708 13.25
rfingers 7.12502
rthumb 9.84241 -16.5
lclavicle -1.18525e-014 1.59028e-015
lhumerus -27.0806 13.4384 84.1489
lradius 24.7967
lwrist -10.5371
lhand -13.476 30.1259
lfingers 7.12502
lthumb 12.6343 59.7238
rfemur -29.1644 -3.80435 15.5844
rtibia 57.3158
rfoot -6.82243 -9.61046
rtoes 1.96135
lfemur -6.41273 -3.03753 -30.9385
ltibia 29.2442
lfoot -15.606 2.88892
ltoes 1.22909
101
root 1.81444 17.3413 -13.0429 -2.69064 -0.870366 4.94453
lowerback 7.46379 -0.277079 -5.17573
upperback 0.577833 -0.774336 0.715462
thorax -3.51109 -0.301655 3.73544
lowerneck -17.0404 -3.18475 -9.93059
upperneck 18.8576 -2.7824 4.6816
head 8.93714 -1.52389 2.88611
rclavicle -1.66234e-014 -5.56597e-015
rhumerus -34.6697 -20.2026 -74.8313
rradius 26.2357
rwrist 9.48902
rhand -16.3961 13.6461
rfingers 7.12502
rthumb 9.81804 -16.105
lclavicle -1.66234e-014 -5.56597e-015
lhumerus -26.5434 12.1916 84.6363
lradius 25.6254
lwrist -10.1441
lhand -13.531 31.635
lfingers 7.12502
lthumb 12.5813 61.2361
rfemur -29.4696 -3.73517 15.4894
rtibia 54.8161
rfoot -7.29104 -9.65669
rtoes -0.212463
lfemur -5.8575 -2.93362 -30.9534
ltibia 28.9835
lfoot -16.0588 2.59945
ltoes 0.825912
102
root 1.79937 17.3376 -12.8954 -2.40141 -0.495935 5.06482
lowerback 7.3841 -0.390872 -5.46989
upperback 0.454149 -0.946094 0.787448
thorax -3.57199 -0.377435 3.99407
lowerneck -16.7704 -3.19686 -9.95246
upperneck 18.5643 -2.80059 4.60594
head 8.78908 -1.53984 2.85907
rclavicle 6.60959e-015 -5.56597e-015
rhumerus -35.3056 -20.1608 -74.5304
rradius 26.3223
rwrist 9.32534
rhand -16.5223 14.4839
rfingers 7.12502
rthumb 9.69627 -15.2729
lclavicle 6.60959e-015 -5.56597e-015
lhumerus -26.3726 11.3791 85.0247
lradius 26.2576
lwrist -8.62027
lhand -14.5145 29.4257
lfingers 7.12502
lthumb 11.633 59.0828
rfemur -29.8535 -3.6109 15.2832
rtibia 52.1373
rfoot -7.07216 -9.91679
rtoes -0.738615
lfemur -5.46193 -2.9931 -31.0372
ltibia 28.6537
lfoot -16.2248 2.26164
ltoes 1.03311
103
root 1.7882 17.3377 -12.7451 -2.09202 -0.277317 5.08794
lowerback 7.25254 -0.520645 -5.62726
upperback 0.372315 -1.12207 0.895446
thorax -3.55931 -0.46013 4.21177
lowerneck -16.8185 -3.04255 -10.0114
upperneck 18.4536 -2.56094 4.59138
head 8.74155 -1.43037 2.89288
rclavicle 1.55052e-014 -9.54166e-015
rhumerus -35.7165 -20.1138 -74.2376
rradius 26.2315
rwrist 9.31223
rhand -16.6906 15.4285
rfingers 7.12502
rthumb 9.53389 -14.3358
lclavicle 1.55052e-014 -9.54166e-015
lhumerus -25.9957 11.0417 85.2228
lradius 27.0342
lwrist -8.92375
lhand -13.3347 31.1871
lfingers 7.12502
lthumb 12.7705 60.7765
rfemur -30.2297 -3.38507 15.1694
rtibia 49.2679
rfoot -6.79748 -10.149
rtoes -1.34837
lfemur -5.00281 -3.01932 -31.03
ltibia 28.2389
lfoot -16.3375 2.17099
ltoes 0.942302
104
root 1.77745 17.3429 -12.5904 -1.9455 -0.0433383 5.08861
lowerback 7.12426 -0.559016 -5.59427
upperback 0.540951 -1.15964 0.861299
thorax -3.3086 -0.49134 4.15591
lowerneck -17.3057 -3.10229 -9.74406
upperneck 18.3713 -2.62615 4.43496
head 8.79969 -1.45171 2.78349
rclavicle 8.17502e-015 -3.18055e-015
rhumerus -35.8076 -20.5374 -74.1658
rradius 26.1257
rwrist 9.42479
rhand -17.3623 14.8172
rfingers 7.12502
rthumb 8.88573 -14.9757
lclavicle 8.17502e-015 -3.18055e-015
lhumerus -25.2987 10.1603 85.4449
lradius 27.6156
lwrist -8.72185
lhand -13.7302 30.0843
lfingers 7.12502
lthumb 12.3892 59.6972
rfemur -30.2927 -3.12193 15.0406
rtibia 46.2376
rfoot -6.62571 -10.3922
rtoes 1.39667
lfemur -4.29802 -2.99652 -30.9955
ltibia 27.7414
lfoot -16.5438 1.98709
ltoes 0.534125
105
root 1.76133 17.3433 -12.4397 -1.79335 0.216542 5.30632
lowerback 7.03887 -0.552598 -5.82951
upperback 0.672313 -1.16411 0.766071
thorax -3.12088 -0.49992 4.18611
lowerneck -17.6058 -3.26394 -9.51001
upperneck 18.2025 -2.8496 4.30436
head 8.80704 -1.54772 2.6676
rclavicle -2.78299e-015 -6.36111e-015
rhumerus -35.962 -20.9214 -74.0884
rradius 25.9809
rwrist 9.4742
rhand -18.3435 13.3878
rfingers 7.12502
rthumb 7.9388 -16.4431
lclavicle -2.78299e-015 -6.36111e-015
lhumerus -24.5909 9.21672 85.647
lradius 28.0163
lwrist -8.49643
lhand -15.0417 26.1954
lfingers 7.12502
lthumb 11.1245 55.8805
rfemur -30.2411 -2.78457 14.6493
rtibia 43.0875
rfoot -5.89715 -10.5832
rtoes 2.38523
lfemur -3.61789 -3.03773 -31.1868
ltibia 27.1931
lfoot -16.6673 1.8101
ltoes 0.522849
